<?xml version="1.0" encoding="iso-8859-1"?>
<!-- Generator: Adobe Illustrator 19.0.0, SVG Export Plug-In . SVG Version: 6.00 Build 0)  -->
<svg version="1.1" id="Layer_1" xmlns="http://www.w3.org/2000/svg" xmlns:xlink="http://www.w3.org/1999/xlink" x="0px" y="0px"
	 viewBox="0 0 512.001 512.001" style="enable-background:new 0 0 512.001 512.001;" xml:space="preserve">
<g>
	<g>
		<path d="M499.594,276.491c-18.788-34.544-43.608-64.52-73.772-89.096c-27.69-22.56-58.632-39.492-92.138-50.463
			c7.627-20.612,2.955-44.134-13.267-60.355l-15.79-15.79l32.426-32.426c4.816-4.816,4.816-12.625,0-17.443
			c-4.816-4.816-12.625-4.816-17.443,0l-33.527,33.527c-18.44-11.37-41.962-11.33-60.36,0.118l-33.578-33.575
			c-4.816-4.816-12.625-4.816-17.441,0s-4.816,12.625,0,17.441l32.511,32.511l-15.633,15.635
			c-16.23,16.23-20.898,39.762-13.258,60.377c-33.509,10.973-64.455,27.905-92.146,50.467
			c-30.164,24.576-54.984,54.553-73.772,89.096c-13.399,24.635-16.002,50.353-7.528,74.374
			c7.457,21.139,23.039,39.302,43.877,51.144c15.367,8.733,32.225,13.252,48.831,13.252c5.91,0,11.787-0.572,17.554-1.73
			c13.444-2.7,25.654-8.436,36.308-16.896c21.209,44.282,55.615,81.636,98.377,106.378c1.91,1.105,4.044,1.658,6.176,1.658
			c2.132,0,4.265-0.553,6.175-1.658c42.767-24.739,77.179-62.098,98.392-106.393c10.651,8.454,22.856,14.188,36.295,16.885
			c5.767,1.158,11.644,1.73,17.552,1.73c16.606,0,33.464-4.518,48.833-13.252c20.838-11.842,36.421-30.005,43.877-51.144
			C515.596,326.843,512.993,301.125,499.594,276.491z M209.025,94.018l23.89-23.889c12.724-12.725,33.44-12.724,46.172,0
			l23.889,23.889c9.637,9.637,11.217,21.485,8.469,31.484c-33.804-20.615-77.079-20.608-110.884,0.016
			C197.805,115.517,199.38,103.661,209.025,94.018z M217.041,213.733h77.917c-0.195,14.588,0.731,29.244,2.772,43.918h-83.458
			C216.311,242.976,217.237,228.319,217.041,213.733z M296.368,189.067h-80.741c-1.336-13.27-3.59-26.457-6.792-39.514
			c28.026-19.878,66.3-19.886,94.324-0.02C299.959,162.597,297.703,175.789,296.368,189.067z M209.794,282.317h92.417
			c3.387,14.981,7.936,29.639,13.602,43.918H196.196C201.861,311.956,206.409,297.298,209.794,282.317z M153.96,356.443
			c-10.643,17.941-25.746,29.328-43.676,32.927c-16.149,3.242-33.67,0.123-49.342-8.782c-15.673-8.907-27.323-22.368-32.803-37.904
			c-6.085-17.25-4.033-36.056,5.936-54.384c17.248-31.711,40.021-59.218,67.685-81.758c25.339-20.647,53.646-36.146,84.291-46.175
			c3.054,13.58,5.004,27.305,5.859,41.12c0.002,0.432,0.282,37.016-2.364,54.982c-3.896,26.442-11.593,51.952-22.949,76.137
			C166.375,333.006,158.342,349.056,153.96,356.443z M256,477.974c-24.503-15.277-45.715-35.245-62.445-58.487h124.895
			C301.718,442.731,280.506,462.701,256,477.974z M333.784,394.958c-0.569-0.08-154.835-0.06-155.53,0.062
			c-3.096-5.763-5.926-11.677-8.499-17.715c1.894-2.634,3.705-5.388,5.418-8.275c3.532-5.954,6.835-12.003,9.929-18.127h141.806
			c3.092,6.117,6.39,12.157,9.917,18.102c1.716,2.893,3.531,5.652,5.429,8.292C339.691,383.316,336.869,389.211,333.784,394.958z
			 M483.861,342.659c-5.48,15.536-17.129,28.997-32.803,37.904c-15.672,8.904-33.196,12.025-49.342,8.784
			c-17.931-3.6-33.033-14.986-43.676-32.927c-4.378-7.38-12.405-23.417-12.628-23.819c-11.362-24.191-19.063-49.707-22.959-76.156
			c-2.645-17.953-2.359-54.577-2.359-55.043c0.857-13.793,2.805-27.498,5.854-41.058c30.645,10.029,58.951,25.529,84.291,46.176
			c27.665,22.54,50.437,50.047,67.685,81.758C487.894,306.603,489.946,325.408,483.861,342.659z"/>
	</g>
</g>
<g>
	<g>
		<path d="M155.132,219.828c-3.802-5.652-11.465-7.154-17.116-3.352c-1.723,1.158-8.693,6.12-10.441,7.437
			c-5.441,4.098-6.529,11.831-2.431,17.271c2.423,3.218,6.118,4.914,9.86,4.914c2.583,0,5.189-0.809,7.411-2.483
			c1.568-1.182,7.819-5.63,9.364-6.67C157.432,233.144,158.933,225.48,155.132,219.828z"/>
	</g>
</g>
<g>
	<g>
		<path d="M111.888,253.248c-5.024-4.598-12.825-4.25-17.424,0.775c-13.4,14.647-25.004,30.919-34.493,48.364
			c-3.255,5.984-1.042,13.473,4.942,16.727c1.872,1.019,3.891,1.501,5.882,1.501c4.372,0,8.608-2.331,10.844-6.443
			c8.534-15.69,18.972-30.326,31.024-43.5C117.26,265.646,116.912,257.846,111.888,253.248z"/>
	</g>
</g>
<g>
	<g>
		<path d="M440.825,313.52c-0.331-3.212-1.172-6.551-2.5-9.929c-2.493-6.339-9.651-9.456-15.991-6.964
			c-6.339,2.492-9.457,9.652-6.964,15.991c0.508,1.293,0.818,2.444,0.919,3.427c0.652,6.347,6.009,11.073,12.253,11.073
			c0.422,0,0.849-0.022,1.278-0.067C436.595,326.353,441.522,320.295,440.825,313.52z"/>
	</g>
</g>
<g>
	<g>
		<path d="M416.021,267.747l-0.65-0.839c-9.469-12.143-20.208-23.322-31.914-33.225c-6.164-5.214-12.669-10.132-19.333-14.616
			c-5.651-3.801-13.316-2.304-17.117,3.348c-3.802,5.652-2.304,13.315,3.348,17.117c5.917,3.981,11.694,8.349,17.171,12.982
			c10.414,8.809,19.967,18.756,28.389,29.555l0.585,0.754c2.43,3.146,6.08,4.796,9.77,4.796c2.632,0,5.285-0.839,7.528-2.571
			C419.188,280.884,420.183,273.139,416.021,267.747z"/>
	</g>
</g>
<g>
</g>
<g>
</g>
<g>
</g>
<g>
</g>
<g>
</g>
<g>
</g>
<g>
</g>
<g>
</g>
<g>
</g>
<g>
</g>
<g>
</g>
<g>
</g>
<g>
</g>
<g>
</g>
<g>
</g>
</svg>
